<?plantuml 1.2026.2?><svg xmlns="http://www.w3.org/2000/svg" xmlns:xlink="http://www.w3.org/1999/xlink" contentStyleType="text/css" data-diagram-type="SEQUENCE" height="780px" preserveAspectRatio="none" style="width:1206px;height:780px;background:#FFFFFF;" version="1.1" viewBox="0 0 1206 780" width="1206px" zoomAndPan="magnify"><defs/><g><g><title>API Gateway .Traefik.</title><rect fill="#FFFFFF" height="145.5527" style="stroke:#181818;stroke-width:1;" width="10" x="313.9507" y="171.4199"/></g><g><title>API Gateway .Traefik.</title><rect fill="#FFFFFF" height="277.1055" style="stroke:#181818;stroke-width:1;" width="10" x="313.9507" y="404.9043"/></g><g><title>Auth Service</title><rect fill="#FFFFFF" height="71.6211" style="stroke:#181818;stroke-width:1;" width="10" x="610.1489" y="216.041"/></g><g><title>Auth Service</title><rect fill="#FFFFFF" height="86.9316" style="stroke:#181818;stroke-width:1;" width="10" x="610.1489" y="449.5254"/></g><g><title>User Service</title><rect fill="#FFFFFF" height="71.6211" style="stroke:#181818;stroke-width:1;" width="10" x="765.5352" y="581.0781"/></g><g class="participant-lifeline" data-entity-uid="part1" data-qualified-name="Client" id="part1-lifeline"><g><title>Client</title><rect fill="#000000" fill-opacity="0.00000" height="618.5215" width="8" x="23.7524" y="81.4883"/><line style="stroke:#181818;stroke-width:0.5;stroke-dasharray:5,5;" x1="27" x2="27" y1="81.4883" y2="700.0098"/></g></g><g class="participant-lifeline" data-entity-uid="part2" data-qualified-name="Gateway" id="part2-lifeline"><g><title>API Gateway .Traefik.</title><rect fill="#000000" fill-opacity="0.00000" height="618.5215" width="8" x="314.9507" y="81.4883"/><line style="stroke:#181818;stroke-width:0.5;stroke-dasharray:5,5;" x1="318.1494" x2="318.1494" y1="81.4883" y2="700.0098"/></g></g><g class="participant-lifeline" data-entity-uid="part3" data-qualified-name="AuthService" id="part3-lifeline"><g><title>Auth Service</title><rect fill="#000000" fill-opacity="0.00000" height="618.5215" width="8" x="611.1489" y="81.4883"/><line style="stroke:#181818;stroke-width:0.5;stroke-dasharray:5,5;" x1="615.1318" x2="615.1318" y1="81.4883" y2="700.0098"/></g></g><g class="participant-lifeline" data-entity-uid="part4" data-qualified-name="UserService" id="part4-lifeline"><g><title>User Service</title><rect fill="#000000" fill-opacity="0.00000" height="618.5215" width="8" x="766.5352" y="81.4883"/><line style="stroke:#181818;stroke-width:0.5;stroke-dasharray:5,5;" x1="770.4717" x2="770.4717" y1="81.4883" y2="700.0098"/></g></g><g class="participant participant-head" data-entity-uid="part1" data-qualified-name="Client" id="part1-head"><text fill="#000000" font-family="sans-serif" font-size="14" lengthAdjust="spacing" textLength="39.5049" x="5" y="78.5352">Client</text><ellipse cx="27.7524" cy="13.5" fill="#E2E2F0" rx="8" ry="8" style="stroke:#181818;stroke-width:0.5;"/><path d="M27.7524,21.5 L27.7524,48.5 M14.7524,29.5 L40.7524,29.5 M27.7524,48.5 L14.7524,63.5 M27.7524,48.5 L40.7524,63.5" fill="none" style="stroke:#181818;stroke-width:0.5;"/></g><g class="participant participant-tail" data-entity-uid="part1" data-qualified-name="Client" id="part1-tail"><text fill="#000000" font-family="sans-serif" font-size="14" lengthAdjust="spacing" textLength="39.5049" x="5" y="712.5449">Client</text><ellipse cx="27.7524" cy="723.998" fill="#E2E2F0" rx="8" ry="8" style="stroke:#181818;stroke-width:0.5;"/><path d="M27.7524,731.998 L27.7524,758.998 M14.7524,739.998 L40.7524,739.998 M27.7524,758.998 L14.7524,773.998 M27.7524,758.998 L40.7524,773.998" fill="none" style="stroke:#181818;stroke-width:0.5;"/></g><g class="participant participant-head" data-entity-uid="part2" data-qualified-name="Gateway" id="part2-head"><rect fill="#E2E2F0" height="30.4883" rx="2.5" ry="2.5" style="stroke:#181818;stroke-width:0.5;" width="157.6025" x="240.1494" y="50"/><text fill="#000000" font-family="sans-serif" font-size="14" lengthAdjust="spacing" textLength="143.6025" x="247.1494" y="70.5352">API Gateway (Traefik)</text></g><g class="participant participant-tail" data-entity-uid="part2" data-qualified-name="Gateway" id="part2-tail"><rect fill="#E2E2F0" height="30.4883" rx="2.5" ry="2.5" style="stroke:#181818;stroke-width:0.5;" width="157.6025" x="240.1494" y="699.0098"/><text fill="#000000" font-family="sans-serif" font-size="14" lengthAdjust="spacing" textLength="143.6025" x="247.1494" y="719.5449">API Gateway (Traefik)</text></g><g class="participant participant-head" data-entity-uid="part3" data-qualified-name="AuthService" id="part3-head"><rect fill="#E2E2F0" height="30.4883" rx="2.5" ry="2.5" style="stroke:#181818;stroke-width:0.5;" width="98.0342" x="566.1318" y="50"/><text fill="#000000" font-family="sans-serif" font-size="14" lengthAdjust="spacing" textLength="84.0342" x="573.1318" y="70.5352">Auth Service</text></g><g class="participant participant-tail" data-entity-uid="part3" data-qualified-name="AuthService" id="part3-tail"><rect fill="#E2E2F0" height="30.4883" rx="2.5" ry="2.5" style="stroke:#181818;stroke-width:0.5;" width="98.0342" x="566.1318" y="699.0098"/><text fill="#000000" font-family="sans-serif" font-size="14" lengthAdjust="spacing" textLength="84.0342" x="573.1318" y="719.5449">Auth Service</text></g><g class="participant participant-head" data-entity-uid="part4" data-qualified-name="UserService" id="part4-head"><rect fill="#E2E2F0" height="30.4883" rx="2.5" ry="2.5" style="stroke:#181818;stroke-width:0.5;" width="96.127" x="722.4717" y="50"/><text fill="#000000" font-family="sans-serif" font-size="14" lengthAdjust="spacing" textLength="82.127" x="729.4717" y="70.5352">User Service</text></g><g class="participant participant-tail" data-entity-uid="part4" data-qualified-name="UserService" id="part4-tail"><rect fill="#E2E2F0" height="30.4883" rx="2.5" ry="2.5" style="stroke:#181818;stroke-width:0.5;" width="96.127" x="722.4717" y="699.0098"/><text fill="#000000" font-family="sans-serif" font-size="14" lengthAdjust="spacing" textLength="82.127" x="729.4717" y="719.5449">User Service</text></g><g><title>API Gateway .Traefik.</title><rect fill="#FFFFFF" height="145.5527" style="stroke:#181818;stroke-width:1;" width="10" x="313.9507" y="171.4199"/></g><g><title>API Gateway .Traefik.</title><rect fill="#FFFFFF" height="277.1055" style="stroke:#181818;stroke-width:1;" width="10" x="313.9507" y="404.9043"/></g><g><title>Auth Service</title><rect fill="#FFFFFF" height="71.6211" style="stroke:#181818;stroke-width:1;" width="10" x="610.1489" y="216.041"/></g><g><title>Auth Service</title><rect fill="#FFFFFF" height="86.9316" style="stroke:#181818;stroke-width:1;" width="10" x="610.1489" y="449.5254"/></g><g><title>User Service</title><rect fill="#FFFFFF" height="71.6211" style="stroke:#181818;stroke-width:1;" width="10" x="765.5352" y="581.0781"/></g><rect fill="#EEEEEE" height="3" style="stroke:#EEEEEE;stroke-width:1;" width="1199.5967" x="0" y="112.1436"/><line style="stroke:#000000;stroke-width:1;" x1="0" x2="1199.5967" y1="112.1436" y2="112.1436"/><line style="stroke:#000000;stroke-width:1;" x1="0" x2="1199.5967" y1="115.1436" y2="115.1436"/><rect fill="#EEEEEE" height="23.3105" style="stroke:#000000;stroke-width:2;" width="221.1431" x="489.2268" y="101.4883"/><text fill="#000000" font-family="sans-serif" font-size="13" font-weight="bold" lengthAdjust="spacing" textLength="202.8584" x="495.2268" y="118.0566">Case 1: Invalid/Missing Token</text><g class="message" data-entity-1="part1" data-entity-2="part2" id="msg1"><polygon fill="#181818" points="301.9507,167.4199,311.9507,171.4199,301.9507,175.4199,305.9507,171.4199" style="stroke:#181818;stroke-width:1;"/><line style="stroke:#181818;stroke-width:1;" x1="27.7524" x2="307.9507" y1="171.4199" y2="171.4199"/><text fill="#000000" font-family="sans-serif" font-size="13" lengthAdjust="spacing" textLength="117.3047" x="34.7524" y="151.3672">GET /user/{userId}</text><text fill="#000000" font-family="sans-serif" font-size="13" lengthAdjust="spacing" textLength="242.8105" x="34.7524" y="166.6777">Authorization: Bearer &lt;invalid_token&gt;</text></g><g class="message" data-entity-1="part2" data-entity-2="part3" id="msg2"><polygon fill="#181818" points="598.1489,212.041,608.1489,216.041,598.1489,220.041,602.1489,216.041" style="stroke:#181818;stroke-width:1;"/><line style="stroke:#181818;stroke-width:1;" x1="323.9507" x2="604.1489" y1="216.041" y2="216.041"/><text fill="#000000" font-family="sans-serif" font-size="13" lengthAdjust="spacing" textLength="63.7686" x="330.9507" y="195.9883">GET /auth</text><text fill="#000000" font-family="sans-serif" font-size="13" lengthAdjust="spacing" textLength="242.8105" x="330.9507" y="211.2988">Authorization: Bearer &lt;invalid_token&gt;</text></g><g class="message" data-entity-1="part3" data-entity-2="part3" id="msg3"><line style="stroke:#181818;stroke-width:1;" x1="620.1489" x2="662.1489" y1="245.3516" y2="245.3516"/><line style="stroke:#181818;stroke-width:1;" x1="662.1489" x2="662.1489" y1="245.3516" y2="258.3516"/><line style="stroke:#181818;stroke-width:1;" x1="621.1489" x2="662.1489" y1="258.3516" y2="258.3516"/><polygon fill="#181818" points="631.1489,254.3516,621.1489,258.3516,631.1489,262.3516,627.1489,258.3516" style="stroke:#181818;stroke-width:1;"/><text fill="#000000" font-family="sans-serif" font-size="13" lengthAdjust="spacing" textLength="121.3862" x="627.1489" y="240.6094">Validate JWT Token</text></g><g class="message" data-entity-1="part3" data-entity-2="part2" id="msg4"><polygon fill="#181818" points="334.9507,283.6621,324.9507,287.6621,334.9507,291.6621,330.9507,287.6621" style="stroke:#181818;stroke-width:1;"/><line style="stroke:#181818;stroke-width:1;stroke-dasharray:2,2;" x1="328.9507" x2="614.1489" y1="287.6621" y2="287.6621"/><text fill="#000000" font-family="sans-serif" font-size="13" lengthAdjust="spacing" textLength="113.9658" x="340.9507" y="282.9199">401 Unauthorized</text></g><g class="message" data-entity-1="part2" data-entity-2="part1" id="msg5"><polygon fill="#181818" points="38.7524,312.9727,28.7524,316.9727,38.7524,320.9727,34.7524,316.9727" style="stroke:#181818;stroke-width:1;"/><line style="stroke:#181818;stroke-width:1;stroke-dasharray:2,2;" x1="32.7524" x2="317.9507" y1="316.9727" y2="316.9727"/><text fill="#000000" font-family="sans-serif" font-size="13" lengthAdjust="spacing" textLength="113.9658" x="44.7524" y="312.2305">401 Unauthorized</text></g><rect fill="#EEEEEE" height="3" style="stroke:#EEEEEE;stroke-width:1;" width="1199.5967" x="0" y="345.6279"/><line style="stroke:#000000;stroke-width:1;" x1="0" x2="1199.5967" y1="345.6279" y2="345.6279"/><line style="stroke:#000000;stroke-width:1;" x1="0" x2="1199.5967" y1="348.6279" y2="348.6279"/><rect fill="#EEEEEE" height="23.3105" style="stroke:#000000;stroke-width:2;" width="360.582" x="419.5073" y="334.9727"/><text fill="#000000" font-family="sans-serif" font-size="13" font-weight="bold" lengthAdjust="spacing" textLength="342.2974" x="425.5073" y="351.541">Case 2: Mismatched User ID (Authorization Failure)</text><g class="message" data-entity-1="part1" data-entity-2="part2" id="msg6"><polygon fill="#181818" points="301.9507,400.9043,311.9507,404.9043,301.9507,408.9043,305.9507,404.9043" style="stroke:#181818;stroke-width:1;"/><line style="stroke:#181818;stroke-width:1;" x1="27.7524" x2="307.9507" y1="404.9043" y2="404.9043"/><text fill="#000000" font-family="sans-serif" font-size="13" lengthAdjust="spacing" textLength="132.7739" x="34.7524" y="384.8516">GET /user/{userId_A}</text><text fill="#000000" font-family="sans-serif" font-size="13" lengthAdjust="spacing" textLength="267.1982" x="34.7524" y="400.1621">Authorization: Bearer &lt;token_for_user_B&gt;</text></g><g class="message" data-entity-1="part2" data-entity-2="part3" id="msg7"><polygon fill="#181818" points="598.1489,445.5254,608.1489,449.5254,598.1489,453.5254,602.1489,449.5254" style="stroke:#181818;stroke-width:1;"/><line style="stroke:#181818;stroke-width:1;" x1="323.9507" x2="604.1489" y1="449.5254" y2="449.5254"/><text fill="#000000" font-family="sans-serif" font-size="13" lengthAdjust="spacing" textLength="63.7686" x="330.9507" y="429.4727">GET /auth</text><text fill="#000000" font-family="sans-serif" font-size="13" lengthAdjust="spacing" textLength="267.1982" x="330.9507" y="444.7832">Authorization: Bearer &lt;token_for_user_B&gt;</text></g><g class="message" data-entity-1="part3" data-entity-2="part3" id="msg8"><line style="stroke:#181818;stroke-width:1;" x1="620.1489" x2="662.1489" y1="478.8359" y2="478.8359"/><line style="stroke:#181818;stroke-width:1;" x1="662.1489" x2="662.1489" y1="478.8359" y2="491.8359"/><line style="stroke:#181818;stroke-width:1;" x1="621.1489" x2="662.1489" y1="491.8359" y2="491.8359"/><polygon fill="#181818" points="631.1489,487.8359,621.1489,491.8359,631.1489,495.8359,627.1489,491.8359" style="stroke:#181818;stroke-width:1;"/><text fill="#000000" font-family="sans-serif" font-size="13" lengthAdjust="spacing" textLength="121.3862" x="627.1489" y="474.0938">Validate JWT Token</text></g><g class="message" data-entity-1="part3" data-entity-2="part2" id="msg9"><polygon fill="#181818" points="334.9507,532.457,324.9507,536.457,334.9507,540.457,330.9507,536.457" style="stroke:#181818;stroke-width:1;"/><line style="stroke:#181818;stroke-width:1;stroke-dasharray:2,2;" x1="328.9507" x2="614.1489" y1="536.457" y2="536.457"/><text fill="#000000" font-family="sans-serif" font-size="13" lengthAdjust="spacing" textLength="47.3599" x="340.9507" y="516.4043">200 OK</text><text fill="#000000" font-family="sans-serif" font-size="13" lengthAdjust="spacing" textLength="172.1929" x="340.9507" y="531.7148">X-Auth-User-ID: {userId_B}</text></g><g class="message" data-entity-1="part2" data-entity-2="part4" id="msg10"><polygon fill="#181818" points="753.5352,577.0781,763.5352,581.0781,753.5352,585.0781,757.5352,581.0781" style="stroke:#181818;stroke-width:1;"/><line style="stroke:#181818;stroke-width:1;" x1="323.9507" x2="759.5352" y1="581.0781" y2="581.0781"/><text fill="#000000" font-family="sans-serif" font-size="13" lengthAdjust="spacing" textLength="132.7739" x="330.9507" y="561.0254">GET /user/{userId_A}</text><text fill="#000000" font-family="sans-serif" font-size="13" lengthAdjust="spacing" textLength="172.1929" x="330.9507" y="576.3359">X-Auth-User-ID: {userId_B}</text></g><g class="message" data-entity-1="part4" data-entity-2="part4" id="msg11"><line style="stroke:#181818;stroke-width:1;" x1="775.5352" x2="817.5352" y1="610.3887" y2="610.3887"/><line style="stroke:#181818;stroke-width:1;" x1="817.5352" x2="817.5352" y1="610.3887" y2="623.3887"/><line style="stroke:#181818;stroke-width:1;" x1="776.5352" x2="817.5352" y1="623.3887" y2="623.3887"/><polygon fill="#181818" points="786.5352,619.3887,776.5352,623.3887,786.5352,627.3887,782.5352,623.3887" style="stroke:#181818;stroke-width:1;"/><text fill="#000000" font-family="sans-serif" font-size="13" lengthAdjust="spacing" textLength="228.5728" x="782.5352" y="605.6465">Check X-Auth-User-ID == userId_A</text></g><path d="M1032.5728,597.5781 L1032.5728,622.5781 L1183.5728,622.5781 L1183.5728,607.5781 L1173.5728,597.5781 L1032.5728,597.5781" fill="#FEFFDD" style="stroke:#181818;stroke-width:0.5;"/><path d="M1173.5728,597.5781 L1173.5728,607.5781 L1183.5728,607.5781 L1173.5728,597.5781" fill="#FEFFDD" style="stroke:#181818;stroke-width:0.5;"/><text fill="#000000" font-family="sans-serif" font-size="13" lengthAdjust="spacing" textLength="130.4888" x="1038.5728" y="615.1465">userId_B != userId_A</text><g class="message" data-entity-1="part4" data-entity-2="part2" id="msg13"><polygon fill="#181818" points="334.9507,648.6992,324.9507,652.6992,334.9507,656.6992,330.9507,652.6992" style="stroke:#181818;stroke-width:1;"/><line style="stroke:#181818;stroke-width:1;stroke-dasharray:2,2;" x1="328.9507" x2="769.5352" y1="652.6992" y2="652.6992"/><text fill="#000000" font-family="sans-serif" font-size="13" lengthAdjust="spacing" textLength="92.6631" x="340.9507" y="647.957">403 Forbidden</text></g><g class="message" data-entity-1="part2" data-entity-2="part1" id="msg14"><polygon fill="#181818" points="38.7524,678.0098,28.7524,682.0098,38.7524,686.0098,34.7524,682.0098" style="stroke:#181818;stroke-width:1;"/><line style="stroke:#181818;stroke-width:1;stroke-dasharray:2,2;" x1="32.7524" x2="317.9507" y1="682.0098" y2="682.0098"/><text fill="#000000" font-family="sans-serif" font-size="13" lengthAdjust="spacing" textLength="92.6631" x="44.7524" y="677.2676">403 Forbidden</text></g><?plantuml-src jLHTJy8m57tlhxZo10-43trQ70aVGgOncZZK1vBbkXNMW1tf2aOD_zsMKMpbGqtqPUbkpZtdtdEwOImp0TqPeroIEGh9OZP7Bg7KlWrWW9A-u2kKGu5qpAQL4c1kgb_W2vd27HLB5jCrIXSsxovoc5FX87N188dlGnTp2WqF0hx46KjgropF6Pz0c4qf1zydf9WNgYqpYmU3Yn1g2yLKUzVF85cDk1uX4-mD9Sku1nsAGacViu8tafglHJ2MRAbejdiHixRYjxROQA2g_9hQDiCwxoZSwsxTSFaG5lkwS7lZite3XXmtWz2497IltkSwghjmxdZprWUJHTC3bS4poZYboJek27fGTZo0FhBPGj3AZmEAseSZMliNZJCHQMpK-TkKZh3_Hr3DUXrkhaRyiQeXLUrVDUXvO7pehBwFhcL_9OVCF2AmfRS_Dkkyez1DQJm5br552qQEy4on2JP9rMqoEd1Y0Hnsz-AUGZyJJon9b6tMwiwFOF-jFT1fBiK7?></g></svg>