<?plantuml 1.2026.2?><svg xmlns="http://www.w3.org/2000/svg" xmlns:xlink="http://www.w3.org/1999/xlink" contentStyleType="text/css" data-diagram-type="SEQUENCE" height="546px" preserveAspectRatio="none" style="width:930px;height:546px;background:#FFFFFF;" version="1.1" viewBox="0 0 930 546" width="930px" zoomAndPan="magnify"><defs/><g><g><title>API Gateway .Traefik.</title><rect fill="#FFFFFF" height="319.416" style="stroke:#181818;stroke-width:1;" width="10" x="277.7373" y="128.1094"/></g><g><title>Auth Service</title><rect fill="#FFFFFF" height="86.9316" style="stroke:#181818;stroke-width:1;" width="10" x="537.7222" y="172.7305"/></g><g><title>User Service</title><rect fill="#FFFFFF" height="113.9316" style="stroke:#181818;stroke-width:1;" width="10" x="693.1084" y="304.2832"/></g><g class="participant-lifeline" data-entity-uid="part1" data-qualified-name="Client" id="part1-lifeline"><g><title>Client</title><rect fill="#000000" fill-opacity="0.00000" height="384.0371" width="8" x="23.7524" y="81.4883"/><line style="stroke:#181818;stroke-width:0.5;stroke-dasharray:5,5;" x1="27" x2="27" y1="81.4883" y2="465.5254"/></g></g><g class="participant-lifeline" data-entity-uid="part2" data-qualified-name="Gateway" id="part2-lifeline"><g><title>API Gateway .Traefik.</title><rect fill="#000000" fill-opacity="0.00000" height="384.0371" width="8" x="278.7373" y="81.4883"/><line style="stroke:#181818;stroke-width:0.5;stroke-dasharray:5,5;" x1="281.936" x2="281.936" y1="81.4883" y2="465.5254"/></g></g><g class="participant-lifeline" data-entity-uid="part3" data-qualified-name="AuthService" id="part3-lifeline"><g><title>Auth Service</title><rect fill="#000000" fill-opacity="0.00000" height="384.0371" width="8" x="538.7222" y="81.4883"/><line style="stroke:#181818;stroke-width:0.5;stroke-dasharray:5,5;" x1="542.7051" x2="542.7051" y1="81.4883" y2="465.5254"/></g></g><g class="participant-lifeline" data-entity-uid="part4" data-qualified-name="UserService" id="part4-lifeline"><g><title>User Service</title><rect fill="#000000" fill-opacity="0.00000" height="384.0371" width="8" x="694.1084" y="81.4883"/><line style="stroke:#181818;stroke-width:0.5;stroke-dasharray:5,5;" x1="698.0449" x2="698.0449" y1="81.4883" y2="465.5254"/></g></g><g class="participant participant-head" data-entity-uid="part1" data-qualified-name="Client" id="part1-head"><text fill="#000000" font-family="sans-serif" font-size="14" lengthAdjust="spacing" textLength="39.5049" x="5" y="78.5352">Client</text><ellipse cx="27.7524" cy="13.5" fill="#E2E2F0" rx="8" ry="8" style="stroke:#181818;stroke-width:0.5;"/><path d="M27.7524,21.5 L27.7524,48.5 M14.7524,29.5 L40.7524,29.5 M27.7524,48.5 L14.7524,63.5 M27.7524,48.5 L40.7524,63.5" fill="none" style="stroke:#181818;stroke-width:0.5;"/></g><g class="participant participant-tail" data-entity-uid="part1" data-qualified-name="Client" id="part1-tail"><text fill="#000000" font-family="sans-serif" font-size="14" lengthAdjust="spacing" textLength="39.5049" x="5" y="478.0605">Client</text><ellipse cx="27.7524" cy="489.5137" fill="#E2E2F0" rx="8" ry="8" style="stroke:#181818;stroke-width:0.5;"/><path d="M27.7524,497.5137 L27.7524,524.5137 M14.7524,505.5137 L40.7524,505.5137 M27.7524,524.5137 L14.7524,539.5137 M27.7524,524.5137 L40.7524,539.5137" fill="none" style="stroke:#181818;stroke-width:0.5;"/></g><g class="participant participant-head" data-entity-uid="part2" data-qualified-name="Gateway" id="part2-head"><rect fill="#E2E2F0" height="30.4883" rx="2.5" ry="2.5" style="stroke:#181818;stroke-width:0.5;" width="157.6025" x="203.936" y="50"/><text fill="#000000" font-family="sans-serif" font-size="14" lengthAdjust="spacing" textLength="143.6025" x="210.936" y="70.5352">API Gateway (Traefik)</text></g><g class="participant participant-tail" data-entity-uid="part2" data-qualified-name="Gateway" id="part2-tail"><rect fill="#E2E2F0" height="30.4883" rx="2.5" ry="2.5" style="stroke:#181818;stroke-width:0.5;" width="157.6025" x="203.936" y="464.5254"/><text fill="#000000" font-family="sans-serif" font-size="14" lengthAdjust="spacing" textLength="143.6025" x="210.936" y="485.0605">API Gateway (Traefik)</text></g><g class="participant participant-head" data-entity-uid="part3" data-qualified-name="AuthService" id="part3-head"><rect fill="#E2E2F0" height="30.4883" rx="2.5" ry="2.5" style="stroke:#181818;stroke-width:0.5;" width="98.0342" x="493.7051" y="50"/><text fill="#000000" font-family="sans-serif" font-size="14" lengthAdjust="spacing" textLength="84.0342" x="500.7051" y="70.5352">Auth Service</text></g><g class="participant participant-tail" data-entity-uid="part3" data-qualified-name="AuthService" id="part3-tail"><rect fill="#E2E2F0" height="30.4883" rx="2.5" ry="2.5" style="stroke:#181818;stroke-width:0.5;" width="98.0342" x="493.7051" y="464.5254"/><text fill="#000000" font-family="sans-serif" font-size="14" lengthAdjust="spacing" textLength="84.0342" x="500.7051" y="485.0605">Auth Service</text></g><g class="participant participant-head" data-entity-uid="part4" data-qualified-name="UserService" id="part4-head"><rect fill="#E2E2F0" height="30.4883" rx="2.5" ry="2.5" style="stroke:#181818;stroke-width:0.5;" width="96.127" x="650.0449" y="50"/><text fill="#000000" font-family="sans-serif" font-size="14" lengthAdjust="spacing" textLength="82.127" x="657.0449" y="70.5352">User Service</text></g><g class="participant participant-tail" data-entity-uid="part4" data-qualified-name="UserService" id="part4-tail"><rect fill="#E2E2F0" height="30.4883" rx="2.5" ry="2.5" style="stroke:#181818;stroke-width:0.5;" width="96.127" x="650.0449" y="464.5254"/><text fill="#000000" font-family="sans-serif" font-size="14" lengthAdjust="spacing" textLength="82.127" x="657.0449" y="485.0605">User Service</text></g><g><title>API Gateway .Traefik.</title><rect fill="#FFFFFF" height="319.416" style="stroke:#181818;stroke-width:1;" width="10" x="277.7373" y="128.1094"/></g><g><title>Auth Service</title><rect fill="#FFFFFF" height="86.9316" style="stroke:#181818;stroke-width:1;" width="10" x="537.7222" y="172.7305"/></g><g><title>User Service</title><rect fill="#FFFFFF" height="113.9316" style="stroke:#181818;stroke-width:1;" width="10" x="693.1084" y="304.2832"/></g><g class="message" data-entity-1="part1" data-entity-2="part2" id="msg1"><polygon fill="#181818" points="265.7373,124.1094,275.7373,128.1094,265.7373,132.1094,269.7373,128.1094" style="stroke:#181818;stroke-width:1;"/><line style="stroke:#181818;stroke-width:1;" x1="27.7524" x2="271.7373" y1="128.1094" y2="128.1094"/><text fill="#000000" font-family="sans-serif" font-size="13" lengthAdjust="spacing" textLength="117.3047" x="34.7524" y="108.0566">GET /user/{userId}</text><text fill="#000000" font-family="sans-serif" font-size="13" lengthAdjust="spacing" textLength="230.9849" x="34.7524" y="123.3672">Authorization: Bearer &lt;valid_token&gt;</text></g><g class="message" data-entity-1="part2" data-entity-2="part3" id="msg2"><polygon fill="#181818" points="525.7222,168.7305,535.7222,172.7305,525.7222,176.7305,529.7222,172.7305" style="stroke:#181818;stroke-width:1;"/><line style="stroke:#181818;stroke-width:1;" x1="287.7373" x2="531.7222" y1="172.7305" y2="172.7305"/><text fill="#000000" font-family="sans-serif" font-size="13" lengthAdjust="spacing" textLength="63.7686" x="294.7373" y="152.6777">GET /auth</text><text fill="#000000" font-family="sans-serif" font-size="13" lengthAdjust="spacing" textLength="230.9849" x="294.7373" y="167.9883">Authorization: Bearer &lt;valid_token&gt;</text></g><g class="message" data-entity-1="part3" data-entity-2="part3" id="msg3"><line style="stroke:#181818;stroke-width:1;" x1="547.7222" x2="589.7222" y1="202.041" y2="202.041"/><line style="stroke:#181818;stroke-width:1;" x1="589.7222" x2="589.7222" y1="202.041" y2="215.041"/><line style="stroke:#181818;stroke-width:1;" x1="548.7222" x2="589.7222" y1="215.041" y2="215.041"/><polygon fill="#181818" points="558.7222,211.041,548.7222,215.041,558.7222,219.041,554.7222,215.041" style="stroke:#181818;stroke-width:1;"/><text fill="#000000" font-family="sans-serif" font-size="13" lengthAdjust="spacing" textLength="121.3862" x="554.7222" y="197.2988">Validate JWT Token</text></g><g class="message" data-entity-1="part3" data-entity-2="part2" id="msg4"><polygon fill="#181818" points="298.7373,255.6621,288.7373,259.6621,298.7373,263.6621,294.7373,259.6621" style="stroke:#181818;stroke-width:1;"/><line style="stroke:#181818;stroke-width:1;stroke-dasharray:2,2;" x1="292.7373" x2="541.7222" y1="259.6621" y2="259.6621"/><text fill="#000000" font-family="sans-serif" font-size="13" lengthAdjust="spacing" textLength="47.3599" x="304.7373" y="239.6094">200 OK</text><text fill="#000000" font-family="sans-serif" font-size="13" lengthAdjust="spacing" textLength="158.2153" x="304.7373" y="254.9199">X-Auth-User-ID: {userId}</text></g><g class="message" data-entity-1="part2" data-entity-2="part4" id="msg5"><polygon fill="#181818" points="681.1084,300.2832,691.1084,304.2832,681.1084,308.2832,685.1084,304.2832" style="stroke:#181818;stroke-width:1;"/><line style="stroke:#181818;stroke-width:1;" x1="287.7373" x2="687.1084" y1="304.2832" y2="304.2832"/><text fill="#000000" font-family="sans-serif" font-size="13" lengthAdjust="spacing" textLength="117.3047" x="294.7373" y="284.2305">GET /user/{userId}</text><text fill="#000000" font-family="sans-serif" font-size="13" lengthAdjust="spacing" textLength="158.2153" x="294.7373" y="299.541">X-Auth-User-ID: {userId}</text></g><g class="message" data-entity-1="part4" data-entity-2="part4" id="msg6"><line style="stroke:#181818;stroke-width:1;" x1="703.1084" x2="745.1084" y1="333.5938" y2="333.5938"/><line style="stroke:#181818;stroke-width:1;" x1="745.1084" x2="745.1084" y1="333.5938" y2="346.5938"/><line style="stroke:#181818;stroke-width:1;" x1="704.1084" x2="745.1084" y1="346.5938" y2="346.5938"/><polygon fill="#181818" points="714.1084,342.5938,704.1084,346.5938,714.1084,350.5938,710.1084,346.5938" style="stroke:#181818;stroke-width:1;"/><text fill="#000000" font-family="sans-serif" font-size="13" lengthAdjust="spacing" textLength="213.1035" x="710.1084" y="328.8516">Check X-Auth-User-ID == userId</text></g><g class="message" data-entity-1="part4" data-entity-2="part4" id="msg7"><line style="stroke:#181818;stroke-width:1;" x1="703.1084" x2="745.1084" y1="375.9043" y2="375.9043"/><line style="stroke:#181818;stroke-width:1;" x1="745.1084" x2="745.1084" y1="375.9043" y2="388.9043"/><line style="stroke:#181818;stroke-width:1;" x1="704.1084" x2="745.1084" y1="388.9043" y2="388.9043"/><polygon fill="#181818" points="714.1084,384.9043,704.1084,388.9043,714.1084,392.9043,710.1084,388.9043" style="stroke:#181818;stroke-width:1;"/><text fill="#000000" font-family="sans-serif" font-size="13" lengthAdjust="spacing" textLength="99.1821" x="710.1084" y="371.1621">Fetch User Data</text></g><g class="message" data-entity-1="part4" data-entity-2="part2" id="msg8"><polygon fill="#181818" points="298.7373,414.2148,288.7373,418.2148,298.7373,422.2148,294.7373,418.2148" style="stroke:#181818;stroke-width:1;"/><line style="stroke:#181818;stroke-width:1;stroke-dasharray:2,2;" x1="292.7373" x2="697.1084" y1="418.2148" y2="418.2148"/><text fill="#000000" font-family="sans-serif" font-size="13" lengthAdjust="spacing" textLength="122.9858" x="304.7373" y="413.4727">200 OK (User JSON)</text></g><g class="message" data-entity-1="part2" data-entity-2="part1" id="msg9"><polygon fill="#181818" points="38.7524,443.5254,28.7524,447.5254,38.7524,451.5254,34.7524,447.5254" style="stroke:#181818;stroke-width:1;"/><line style="stroke:#181818;stroke-width:1;stroke-dasharray:2,2;" x1="32.7524" x2="281.7373" y1="447.5254" y2="447.5254"/><text fill="#000000" font-family="sans-serif" font-size="13" lengthAdjust="spacing" textLength="122.9858" x="44.7524" y="442.7832">200 OK (User JSON)</text></g><?plantuml-src bP9DIyD048Rl-HL3J-qXj7WCjg2jbbImGkF7eI33PYHBogPifn4L_xkx-MBNLCLBs0pl-ypCkuk22mtpdIJ5mHurIo7tg1W65tSnB97f5TzWc6Ya5vcF1e27jlfDVkGCDgHBAQXIsKBpxoll3wGzfIsqog0U1S9PsoQ2vLK2uwCHZJ_iDqu_jyhI2otVaMMX8hWar8PwNk9EfizSvAHc0GgMfO5q0mVjFeRkZDTqG5Fv9zZTqJdt-0_MRGshnmGI2_7bxhPdamciRxRgARIIq8OJnei8sjs3b4xsTvTp4ZqTtu_m3krUYdFkqUSPYHny7aodK0D_jLuJYwmgmG8PVMq_4XXMqjLcVJjoG_2UJnU2yTTFwIzxu_W2?></g></svg>