<?plantuml 1.2026.2?><svg xmlns="http://www.w3.org/2000/svg" xmlns:xlink="http://www.w3.org/1999/xlink" contentStyleType="text/css" data-diagram-type="SEQUENCE" height="681px" preserveAspectRatio="none" style="width:816px;height:681px;background:#FFFFFF;" version="1.1" viewBox="0 0 816 681" width="816px" zoomAndPan="magnify"><defs/><g><g><title>API Gateway .Traefik.</title><rect fill="#FFFFFF" height="454.6133" style="stroke:#181818;stroke-width:1;" width="10" x="307.3726" y="128.1094"/></g><g><title>Auth Service</title><rect fill="#FFFFFF" height="388.6816" style="stroke:#181818;stroke-width:1;" width="10" x="533.0547" y="172.7305"/></g><g><title>Auth DB</title><rect fill="#FFFFFF" height="29.3105" style="stroke:#181818;stroke-width:1;" width="10" x="764.3271" y="202.041"/></g><g><title>Auth DB</title><rect fill="#FFFFFF" height="29.3105" style="stroke:#181818;stroke-width:1;" width="10" x="764.3271" y="369.5938"/></g><g><title>Auth DB</title><rect fill="#FFFFFF" height="29.3105" style="stroke:#181818;stroke-width:1;" width="10" x="764.3271" y="487.791"/></g><rect fill="none" height="265.75" style="stroke:#000000;stroke-width:1.5;" width="586.3765" x="223.5713" y="288.6621"/><g class="participant-lifeline" data-entity-uid="part1" data-qualified-name="Client" id="part1-lifeline"><g><title>Client</title><rect fill="#000000" fill-opacity="0.00000" height="519.2344" width="8" x="23.7524" y="81.4883"/><line style="stroke:#181818;stroke-width:0.5;stroke-dasharray:5,5;" x1="27" x2="27" y1="81.4883" y2="600.7227"/></g></g><g class="participant-lifeline" data-entity-uid="part2" data-qualified-name="Gateway" id="part2-lifeline"><g><title>API Gateway .Traefik.</title><rect fill="#000000" fill-opacity="0.00000" height="519.2344" width="8" x="308.3726" y="81.4883"/><line style="stroke:#181818;stroke-width:0.5;stroke-dasharray:5,5;" x1="311.5713" x2="311.5713" y1="81.4883" y2="600.7227"/></g></g><g class="participant-lifeline" data-entity-uid="part3" data-qualified-name="AuthService" id="part3-lifeline"><g><title>Auth Service</title><rect fill="#000000" fill-opacity="0.00000" height="519.2344" width="8" x="534.0547" y="81.4883"/><line style="stroke:#181818;stroke-width:0.5;stroke-dasharray:5,5;" x1="538.0376" x2="538.0376" y1="81.4883" y2="600.7227"/></g></g><g class="participant-lifeline" data-entity-uid="part4" data-qualified-name="DB" id="part4-lifeline"><g><title>Auth DB</title><rect fill="#000000" fill-opacity="0.00000" height="519.2344" width="8" x="765.3271" y="81.4883"/><line style="stroke:#181818;stroke-width:0.5;stroke-dasharray:5,5;" x1="768.7065" x2="768.7065" y1="81.4883" y2="600.7227"/></g></g><g class="participant participant-head" data-entity-uid="part1" data-qualified-name="Client" id="part1-head"><text fill="#000000" font-family="sans-serif" font-size="14" lengthAdjust="spacing" textLength="39.5049" x="5" y="78.5352">Client</text><ellipse cx="27.7524" cy="13.5" fill="#E2E2F0" rx="8" ry="8" style="stroke:#181818;stroke-width:0.5;"/><path d="M27.7524,21.5 L27.7524,48.5 M14.7524,29.5 L40.7524,29.5 M27.7524,48.5 L14.7524,63.5 M27.7524,48.5 L40.7524,63.5" fill="none" style="stroke:#181818;stroke-width:0.5;"/></g><g class="participant participant-tail" data-entity-uid="part1" data-qualified-name="Client" id="part1-tail"><text fill="#000000" font-family="sans-serif" font-size="14" lengthAdjust="spacing" textLength="39.5049" x="5" y="613.2578">Client</text><ellipse cx="27.7524" cy="624.7109" fill="#E2E2F0" rx="8" ry="8" style="stroke:#181818;stroke-width:0.5;"/><path d="M27.7524,632.7109 L27.7524,659.7109 M14.7524,640.7109 L40.7524,640.7109 M27.7524,659.7109 L14.7524,674.7109 M27.7524,659.7109 L40.7524,674.7109" fill="none" style="stroke:#181818;stroke-width:0.5;"/></g><g class="participant participant-head" data-entity-uid="part2" data-qualified-name="Gateway" id="part2-head"><rect fill="#E2E2F0" height="30.4883" rx="2.5" ry="2.5" style="stroke:#181818;stroke-width:0.5;" width="157.6025" x="233.5713" y="50"/><text fill="#000000" font-family="sans-serif" font-size="14" lengthAdjust="spacing" textLength="143.6025" x="240.5713" y="70.5352">API Gateway (Traefik)</text></g><g class="participant participant-tail" data-entity-uid="part2" data-qualified-name="Gateway" id="part2-tail"><rect fill="#E2E2F0" height="30.4883" rx="2.5" ry="2.5" style="stroke:#181818;stroke-width:0.5;" width="157.6025" x="233.5713" y="599.7227"/><text fill="#000000" font-family="sans-serif" font-size="14" lengthAdjust="spacing" textLength="143.6025" x="240.5713" y="620.2578">API Gateway (Traefik)</text></g><g class="participant participant-head" data-entity-uid="part3" data-qualified-name="AuthService" id="part3-head"><rect fill="#E2E2F0" height="30.4883" rx="2.5" ry="2.5" style="stroke:#181818;stroke-width:0.5;" width="98.0342" x="489.0376" y="50"/><text fill="#000000" font-family="sans-serif" font-size="14" lengthAdjust="spacing" textLength="84.0342" x="496.0376" y="70.5352">Auth Service</text></g><g class="participant participant-tail" data-entity-uid="part3" data-qualified-name="AuthService" id="part3-tail"><rect fill="#E2E2F0" height="30.4883" rx="2.5" ry="2.5" style="stroke:#181818;stroke-width:0.5;" width="98.0342" x="489.0376" y="599.7227"/><text fill="#000000" font-family="sans-serif" font-size="14" lengthAdjust="spacing" textLength="84.0342" x="496.0376" y="620.2578">Auth Service</text></g><g class="participant participant-head" data-entity-uid="part4" data-qualified-name="DB" id="part4-head"><text fill="#000000" font-family="sans-serif" font-size="14" lengthAdjust="spacing" textLength="55.2412" x="738.7065" y="78.5352">Auth DB</text><path d="M751.3271,29 C751.3271,19 769.3271,19 769.3271,19 C769.3271,19 787.3271,19 787.3271,29 L787.3271,55 C787.3271,65 769.3271,65 769.3271,65 C769.3271,65 751.3271,65 751.3271,55 L751.3271,29" fill="#E2E2F0" style="stroke:#181818;stroke-width:0.5;"/><path d="M751.3271,29 C751.3271,39 769.3271,39 769.3271,39 C769.3271,39 787.3271,39 787.3271,29" fill="none" style="stroke:#181818;stroke-width:0.5;"/></g><g class="participant participant-tail" data-entity-uid="part4" data-qualified-name="DB" id="part4-tail"><text fill="#000000" font-family="sans-serif" font-size="14" lengthAdjust="spacing" textLength="55.2412" x="738.7065" y="613.2578">Auth DB</text><path d="M751.3271,626.2109 C751.3271,616.2109 769.3271,616.2109 769.3271,616.2109 C769.3271,616.2109 787.3271,616.2109 787.3271,626.2109 L787.3271,652.2109 C787.3271,662.2109 769.3271,662.2109 769.3271,662.2109 C769.3271,662.2109 751.3271,662.2109 751.3271,652.2109 L751.3271,626.2109" fill="#E2E2F0" style="stroke:#181818;stroke-width:0.5;"/><path d="M751.3271,626.2109 C751.3271,636.2109 769.3271,636.2109 769.3271,636.2109 C769.3271,636.2109 787.3271,636.2109 787.3271,626.2109" fill="none" style="stroke:#181818;stroke-width:0.5;"/></g><g><title>API Gateway .Traefik.</title><rect fill="#FFFFFF" height="454.6133" style="stroke:#181818;stroke-width:1;" width="10" x="307.3726" y="128.1094"/></g><g><title>Auth Service</title><rect fill="#FFFFFF" height="388.6816" style="stroke:#181818;stroke-width:1;" width="10" x="533.0547" y="172.7305"/></g><g><title>Auth DB</title><rect fill="#FFFFFF" height="29.3105" style="stroke:#181818;stroke-width:1;" width="10" x="764.3271" y="202.041"/></g><g><title>Auth DB</title><rect fill="#FFFFFF" height="29.3105" style="stroke:#181818;stroke-width:1;" width="10" x="764.3271" y="369.5938"/></g><g><title>Auth DB</title><rect fill="#FFFFFF" height="29.3105" style="stroke:#181818;stroke-width:1;" width="10" x="764.3271" y="487.791"/></g><g class="message" data-entity-1="part1" data-entity-2="part2" id="msg1"><polygon fill="#181818" points="295.3726,124.1094,305.3726,128.1094,295.3726,132.1094,299.3726,128.1094" style="stroke:#181818;stroke-width:1;"/><line style="stroke:#181818;stroke-width:1;" x1="27.7524" x2="301.3726" y1="128.1094" y2="128.1094"/><text fill="#000000" font-family="sans-serif" font-size="13" lengthAdjust="spacing" textLength="110.1064" x="34.7524" y="108.0566">POST /auth/login</text><text fill="#000000" font-family="sans-serif" font-size="13" lengthAdjust="spacing" textLength="196.6821" x="34.7524" y="123.3672">{ "login": "...", "password": "..." }</text></g><g class="message" data-entity-1="part2" data-entity-2="part3" id="msg2"><polygon fill="#181818" points="521.0547,168.7305,531.0547,172.7305,521.0547,176.7305,525.0547,172.7305" style="stroke:#181818;stroke-width:1;"/><line style="stroke:#181818;stroke-width:1;" x1="317.3726" x2="527.0547" y1="172.7305" y2="172.7305"/><text fill="#000000" font-family="sans-serif" font-size="13" lengthAdjust="spacing" textLength="110.1064" x="324.3726" y="152.6777">POST /auth/login</text><text fill="#000000" font-family="sans-serif" font-size="13" lengthAdjust="spacing" textLength="196.6821" x="324.3726" y="167.9883">{ "login": "...", "password": "..." }</text></g><g class="message" data-entity-1="part3" data-entity-2="part4" id="msg3"><polygon fill="#181818" points="752.3271,198.041,762.3271,202.041,752.3271,206.041,756.3271,202.041" style="stroke:#181818;stroke-width:1;"/><line style="stroke:#181818;stroke-width:1;" x1="543.0547" x2="758.3271" y1="202.041" y2="202.041"/><text fill="#000000" font-family="sans-serif" font-size="13" lengthAdjust="spacing" textLength="107.7451" x="550.0547" y="197.2988">Get user by login</text></g><g class="message" data-entity-1="part4" data-entity-2="part3" id="msg4"><polygon fill="#181818" points="554.0547,227.3516,544.0547,231.3516,554.0547,235.3516,550.0547,231.3516" style="stroke:#181818;stroke-width:1;"/><line style="stroke:#181818;stroke-width:1;stroke-dasharray:2,2;" x1="548.0547" x2="768.3271" y1="231.3516" y2="231.3516"/><text fill="#000000" font-family="sans-serif" font-size="13" lengthAdjust="spacing" textLength="197.2725" x="560.0547" y="226.6094">User data (with password hash)</text></g><g class="message" data-entity-1="part3" data-entity-2="part3" id="msg5"><line style="stroke:#181818;stroke-width:1;" x1="543.0547" x2="585.0547" y1="260.6621" y2="260.6621"/><line style="stroke:#181818;stroke-width:1;" x1="585.0547" x2="585.0547" y1="260.6621" y2="273.6621"/><line style="stroke:#181818;stroke-width:1;" x1="544.0547" x2="585.0547" y1="273.6621" y2="273.6621"/><polygon fill="#181818" points="554.0547,269.6621,544.0547,273.6621,554.0547,277.6621,550.0547,273.6621" style="stroke:#181818;stroke-width:1;"/><text fill="#000000" font-family="sans-serif" font-size="13" lengthAdjust="spacing" textLength="155.3271" x="550.0547" y="255.9199">Compare password hash</text></g><path d="M223.5713,288.6621 L285.71,288.6621 L285.71,295.9727 L275.71,305.9727 L223.5713,305.9727 L223.5713,288.6621" fill="#EEEEEE" style="stroke:#000000;stroke-width:1.5;"/><rect fill="none" height="265.75" style="stroke:#000000;stroke-width:1.5;" width="586.3765" x="223.5713" y="288.6621"/><text fill="#000000" font-family="sans-serif" font-size="13" font-weight="bold" lengthAdjust="spacing" textLength="17.1387" x="238.5713" y="302.2305">alt</text><text fill="#000000" font-family="sans-serif" font-size="11" font-weight="bold" lengthAdjust="spacing" textLength="52.2554" x="300.71" y="301.2969">[Success]</text><g class="message" data-entity-1="part3" data-entity-2="part3" id="msg6"><line style="stroke:#181818;stroke-width:1;" x1="543.0547" x2="585.0547" y1="327.2832" y2="327.2832"/><line style="stroke:#181818;stroke-width:1;" x1="585.0547" x2="585.0547" y1="327.2832" y2="340.2832"/><line style="stroke:#181818;stroke-width:1;" x1="544.0547" x2="585.0547" y1="340.2832" y2="340.2832"/><polygon fill="#181818" points="554.0547,336.2832,544.0547,340.2832,554.0547,344.2832,550.0547,340.2832" style="stroke:#181818;stroke-width:1;"/><text fill="#000000" font-family="sans-serif" font-size="13" lengthAdjust="spacing" textLength="127.2769" x="550.0547" y="322.541">Generate JWT Token</text></g><g class="message" data-entity-1="part3" data-entity-2="part4" id="msg7"><polygon fill="#181818" points="752.3271,365.5938,762.3271,369.5938,752.3271,373.5938,756.3271,369.5938" style="stroke:#181818;stroke-width:1;"/><line style="stroke:#181818;stroke-width:1;" x1="543.0547" x2="758.3271" y1="369.5938" y2="369.5938"/><text fill="#000000" font-family="sans-serif" font-size="13" lengthAdjust="spacing" textLength="128.4575" x="550.0547" y="364.8516">Log LOGIN_SUCCESS</text></g><g class="message" data-entity-1="part4" data-entity-2="part3" id="msg8"><polygon fill="#181818" points="554.0547,394.9043,544.0547,398.9043,554.0547,402.9043,550.0547,398.9043" style="stroke:#181818;stroke-width:1;"/><line style="stroke:#181818;stroke-width:1;stroke-dasharray:2,2;" x1="548.0547" x2="768.3271" y1="398.9043" y2="398.9043"/><text fill="#000000" font-family="sans-serif" font-size="13" lengthAdjust="spacing" textLength="18.5859" x="560.0547" y="394.1621">OK</text></g><g class="message" data-entity-1="part3" data-entity-2="part2" id="msg9"><polygon fill="#181818" points="328.3726,439.5254,318.3726,443.5254,328.3726,447.5254,324.3726,443.5254" style="stroke:#181818;stroke-width:1;"/><line style="stroke:#181818;stroke-width:1;stroke-dasharray:2,2;" x1="322.3726" x2="532.0547" y1="443.5254" y2="443.5254"/><text fill="#000000" font-family="sans-serif" font-size="13" lengthAdjust="spacing" textLength="47.3599" x="334.3726" y="423.4727">200 OK</text><text fill="#000000" font-family="sans-serif" font-size="13" lengthAdjust="spacing" textLength="161.8462" x="334.3726" y="438.7832">{ "token": "&lt;jwt_token&gt;" }</text></g><line style="stroke:#000000;stroke-width:1;stroke-dasharray:2,2;" x1="223.5713" x2="809.9478" y1="452.5254" y2="452.5254"/><text fill="#000000" font-family="sans-serif" font-size="11" font-weight="bold" lengthAdjust="spacing" textLength="114.6245" x="228.5713" y="463.1602">[Invalid Credentials]</text><g class="message" data-entity-1="part3" data-entity-2="part4" id="msg10"><polygon fill="#181818" points="752.3271,483.791,762.3271,487.791,752.3271,491.791,756.3271,487.791" style="stroke:#181818;stroke-width:1;"/><line style="stroke:#181818;stroke-width:1;" x1="543.0547" x2="758.3271" y1="487.791" y2="487.791"/><text fill="#000000" font-family="sans-serif" font-size="13" lengthAdjust="spacing" textLength="116.8096" x="550.0547" y="483.0488">Log LOGIN_FAILED</text></g><g class="message" data-entity-1="part4" data-entity-2="part3" id="msg11"><polygon fill="#181818" points="554.0547,513.1016,544.0547,517.1016,554.0547,521.1016,550.0547,517.1016" style="stroke:#181818;stroke-width:1;"/><line style="stroke:#181818;stroke-width:1;stroke-dasharray:2,2;" x1="548.0547" x2="768.3271" y1="517.1016" y2="517.1016"/><text fill="#000000" font-family="sans-serif" font-size="13" lengthAdjust="spacing" textLength="18.5859" x="560.0547" y="512.3594">OK</text></g><g class="message" data-entity-1="part3" data-entity-2="part2" id="msg12"><polygon fill="#181818" points="328.3726,542.4121,318.3726,546.4121,328.3726,550.4121,324.3726,546.4121" style="stroke:#181818;stroke-width:1;"/><line style="stroke:#181818;stroke-width:1;stroke-dasharray:2,2;" x1="322.3726" x2="532.0547" y1="546.4121" y2="546.4121"/><text fill="#000000" font-family="sans-serif" font-size="13" lengthAdjust="spacing" textLength="113.9658" x="334.3726" y="541.6699">401 Unauthorized</text></g><g class="message" data-entity-1="part2" data-entity-2="part1" id="msg13"><polygon fill="#181818" points="38.7524,578.7227,28.7524,582.7227,38.7524,586.7227,34.7524,582.7227" style="stroke:#181818;stroke-width:1;"/><line style="stroke:#181818;stroke-width:1;stroke-dasharray:2,2;" x1="32.7524" x2="311.3726" y1="582.7227" y2="582.7227"/><text fill="#000000" font-family="sans-serif" font-size="13" lengthAdjust="spacing" textLength="255.6201" x="44.7524" y="577.9805">Response (200 OK or 401 Unauthorized)</text></g><?plantuml-src jLFHJi8m57tlLzpi2H85D3uHGm8RBYWHuaPyCI6NxGgLsP6sGD3uxxQ3uJQ9lkYUTjlJSyxjFSL8fnBSX9FGR8LIyuYlK6XmkkC1-AXfYpkeXHBfcI_h3g3ALolmjLv0G7B38yfGTk5GinWrpb3H0URrCeJNOsol3EUTdBKDur4GGXCDi9caSowUn3iusP_J1gVHQ3XduAnGgMqgutm9FXX6ccyCoT4Vo-qRzeARFr0eziOAXLNoUctmISDQaOJP3ZBUhwEcQQy7vrLB4uksrmIrBJTNbAl30jMYpc8g4bGbIqnk-ce6GsK6nZ3H4AoZY9HYOBwVA7mI9AtMxMC8OReaSUg8RNIOpc4uyWVtqs3YklqWo815hxO-rV3eBjigD_PDfPYBorRBdCfcfQqdEvZhbwsUPbN73eWIax61s632Ot0bnIPR71Frk_sRxc3Oz_xH_LNh0YR2PYwL_8rYHY9cnRcMCdLChg7OFv4sF91QfS8qMDlV19Y7MsKj9IL_1vy0?></g></svg>